<svg id="svg" version="1.1" viewBox="0 0 300 246.66666666666663" width="300" height="246.66666666666663" xmlns="http://www.w3.org/2000/svg"><svg xmlns="http://www.w3.org/2000/svg"><defs><clipPath id="clip-1"><rect x="0" y="0" transform="scale(0.14648,0.14648)" width="2048" height="1684" fill="none"/></clipPath></defs><g clip-path="url(#clip-1)" fill="none" fill-rule="nonzero" stroke="none" stroke-width="1" stroke-linecap="butt" stroke-linejoin="miter" stroke-miterlimit="10" stroke-dasharray="" stroke-dashoffset="0" font-family="none" font-weight="none" font-size="none" text-anchor="none" style="mix-blend-mode: normal"><path d="M148.59668,4.71617c0.76904,-0.1109 3.48193,-0.05609 4.4209,-0.05696c2.44336,0.18302 5.39648,-0.23974 7.7915,0.03703c2.36426,0.27312 4.78418,0.55683 7.17334,0.74064c2.37012,0.18225 4.95703,0.94316 7.36084,1.14265c0.54639,0.04539 1.7959,1.07237 2.3833,1.29326c0.93604,0.35124 2.07568,0.34167 3.0498,0.60589c5.4624,1.05485 10.04004,4.21658 14.96338,6.52449c3.03223,1.20916 5.26318,3.6565 7.66553,5.75082c0.91846,0.80123 2.34668,1.36648 3.25781,2.25515c4.14258,4.0429 8.19727,8.18189 12.2959,12.27123c0.92432,0.95986 1.91016,1.77779 2.64258,2.90038c1.49854,2.29207 4.09424,4.12083 5.84619,6.18849c3.26074,3.84999 6.25928,7.88909 9.40137,11.83121c0.52148,0.65343 0.68408,1.77618 1.27588,2.45539c1.34033,1.94023 2.75391,3.80751 4.08984,5.74657c0.36768,0.54328 0.42627,1.91987 0.81445,2.37981c2.05957,2.60597 4.85156,5.88045 6.20215,8.91662c1.47217,3.31228 2.31445,4.64258 4.48828,7.52026c0.99609,1.3177 2.00391,5.43824 2.81836,7.03542c0.61816,1.21195 1.65381,2.6086 2.16064,3.90463c0.25928,2.81631 0.61523,3.0347 2.38916,5.08391c0.17139,0.19818 0.58447,2.3801 0.83203,2.96029c0.88623,2.07235 2.0874,3.9846 3.01172,6.0303c0.38965,0.74615 0.52148,3.36677 0.87891,3.87065c1.64648,2.31199 2.23828,5.0697 3.31641,7.67435c0.27393,0.6612 0.25049,1.71407 0.49219,2.2887c2.14014,5.11277 3.01611,10.59129 4.18359,15.97591c0.14502,0.68405 0.49512,1.40618 0.65186,2.07352c0.55518,2.5131 1.58203,5.26261 1.53662,7.851c-0.14062,8.00934 0.16699,16.08167 -0.04687,24.08076c-0.07471,2.79624 -2.13867,8.30376 -3.07617,10.99893c-0.29297,0.83931 -0.56836,1.70499 -0.85107,2.54869c-1.64941,4.94066 -4.16602,9.458 -6.82324,13.90942c-0.55078,0.78658 -1.1792,1.5175 -1.74023,2.29675c-0.5376,0.66061 -1.0459,1.77237 -1.62891,2.36999c-1.61865,1.65665 -3.03516,3.72051 -4.63623,5.3464c-2.39355,2.43005 -4.76807,4.87767 -7.2627,7.192c-0.81299,0.78658 -2.87256,1.75625 -3.55664,2.52233c-2.93115,3.27815 -5.45508,4.68139 -9.63281,5.97478c-1.26855,0.39256 -2.87842,1.40911 -4.26123,1.80313c-1.01807,0.29002 -1.99512,1.85439 -3.01611,2.22352c-2.15039,0.61081 -4.19531,1.4926 -6.32959,2.12831c-0.56396,0.18603 -1.9585,0.01465 -2.43604,0.22704c-2.76562,1.22747 -4.31836,1.71378 -7.31689,1.70792c-0.92871,-0.00146 -3.73242,1.55412 -4.99951,1.56291c-1.10303,0.17577 -2.23389,0.01758 -3.33398,0.14501c-2.35547,0.27098 -4.6875,0.54343 -7.06055,0.65329c-1.15283,0.0542 -2.68652,0.55808 -3.86572,0.72945c-0.69141,0.10253 -1.59229,0.55954 -2.30713,0.64743c-1.4209,0.06738 -2.33789,-0.14941 -3.82178,0.02637c-9.0791,1.07514 -18.18164,1.86172 -27.33105,1.98622c-2.53125,0.03515 -5.0625,0.0249 -7.59229,-0.03222c-1.92773,-0.06152 -4.72412,-0.27977 -6.56982,-0.2285c-3.67178,0.10107 -7.36216,0.43064 -11.07187,0.26805c-0.82266,-0.03662 -1.67739,-0.55661 -2.64185,-0.57565c-3.11411,-0.06152 -6.38555,0.14355 -9.47856,-0.08349c-1.07241,-0.0791 -3.01567,-0.94038 -4.27559,-1.0517c-1.74185,-0.15673 -3.63193,0.14355 -5.3231,-0.14355c-0.66445,-0.06884 -2.83081,-1.081 -3.34219,-1.03559c-3.85708,0.33983 -5.89863,-0.56979 -9.36621,-1.88955c-1.57383,-0.59909 -4.35718,-0.42771 -6.07104,-1.0268c-1.04033,-0.36326 -1.80337,-0.85835 -2.81016,-1.22162c-0.71162,-0.19628 -2.53359,0.1787 -3.09243,-0.00439c-3.45029,-1.12641 -6.81284,-2.51061 -10.30488,-3.54473c-0.721,-0.25048 -1.64473,-1.20843 -2.2979,-1.46477c-2.98242,-1.27435 -6.77871,-2.56334 -9.32827,-4.62866c-1.83091,-1.48234 -4.15063,-3.54181 -5.93892,-5.14426c-2.44585,-2.18983 -4.83354,-4.86742 -7.21538,-7.18614c-2.53066,-2.7479 -5.70615,-5.24093 -7.92832,-8.24371c-1.11724,-1.51164 -2.18101,-4.42359 -3.66387,-6.01287c-0.2584,-0.27684 -0.75645,-2.24549 -1.19546,-2.86215c-0.90659,-1.26995 -2.10718,-2.86948 -2.35986,-4.42213c-0.11631,-0.7485 -0.24331,-1.70938 -0.48325,-2.40661c-0.29678,-0.85982 -1.90547,-3.34699 -2.09165,-4.03836c-0.62285,-2.3114 -1.1502,-4.97874 -1.67256,-7.32676c-0.19746,-0.88765 -0.998,-3.53155 -1.04854,-4.1658c-0.21079,-2.64097 -0.08643,-5.77704 -0.08247,-8.47221c0.00557,-3.90067 -0.1125,-7.90534 0.07793,-11.78258c0.05039,-1.02534 0.76011,-3.3177 0.91318,-4.4898c0.27744,-2.12333 0.77681,-4.27155 1.12266,-6.38023c0.25781,-1.57184 0.28828,-2.96806 0.74473,-4.54517c0.50566,-1.74747 1.61016,-3.79243 2.07363,-5.49009c0.50625,-1.85425 0.75981,-3.9143 1.32363,-5.81029c0.29106,-0.97846 1.30239,-2.48395 1.49868,-3.23904c0.64424,-2.47648 1.35747,-4.93524 1.98955,-7.41582c0.11338,-0.44485 0.92285,-1.93701 1.17144,-2.47443c0.63252,-1.36721 1.18696,-2.85439 1.84526,-4.21003c1.1124,-2.29016 1.62305,-5.48789 2.95942,-7.48789c0.73989,-1.10722 0.56455,-1.51589 1.01836,-2.50944c0.63809,-1.39665 1.20732,-2.67613 1.76689,-4.09681c0.277,-0.70367 1.6894,-2.0826 2.12095,-2.97348c0.36475,-0.75289 0.55869,-2.00146 0.82676,-2.53829c1.23325,-2.47018 2.22275,-4.99324 3.66299,-7.36323c0.93223,-1.5339 2.28867,-3.10194 3.21006,-4.61958c0.71177,-1.17225 1.18931,-2.72417 1.9519,-4.0681c1.26621,-2.23128 2.51572,-3.80019 3.96138,-5.82977c1.59595,-2.24021 3.19717,-4.70952 4.66992,-7.03103c0.41353,-0.65197 1.15474,-1.45774 1.62041,-2.13607c0.55254,-0.75933 1.14185,-1.8273 1.74551,-2.51632c1.3834,-1.57916 2.4501,-2.34465 3.18252,-4.34816c0.2291,-0.62677 2.21455,-2.21795 2.7542,-2.89013c1.23296,-1.53551 2.35181,-3.26628 3.64102,-4.76562c3.00732,-3.03749 6.0189,-6.1529 9.08862,-9.13311c4.84395,-4.70307 9.34702,-9.92731 14.80195,-13.90195c0.46304,-0.33734 1.58628,-0.55793 2.14922,-0.89512c0.59531,-0.35667 1.49912,-1.16361 2.06191,-1.48278c1.65293,-0.93774 3.59517,-2.3072 5.19741,-3.15446c1.62627,-0.90158 3.79263,-1.16077 5.41333,-1.83317c1.23076,-0.51063 1.93652,-1.45038 3.61392,-1.79139c1.19268,-0.24248 2.40029,-0.81377 3.71646,-0.91117c0.45059,-0.03335 1.72046,-0.97572 2.3269,-1.01885c2.63057,-0.59506 5.75566,-1.22813 8.41714,-1.55847c2.88794,-0.35843 3.53643,0.1416 6.54653,-0.6962z" fill="#ffffff"/></g></svg></svg>