<svg id="svg" version="1.1" viewBox="0 0 300 278.82352941176464" width="300" height="278.82352941176464" xmlns="http://www.w3.org/2000/svg"><svg xmlns="http://www.w3.org/2000/svg"><defs><clipPath id="clip-1"><rect x="0" y="0" transform="scale(0.14706,0.14706)" width="2040" height="1896" fill="none"/></clipPath></defs><g clip-path="url(#clip-1)" fill="none" fill-rule="nonzero" stroke="none" stroke-width="1" stroke-linecap="butt" stroke-linejoin="miter" stroke-miterlimit="10" stroke-dasharray="" stroke-dashoffset="0" font-family="none" font-weight="none" font-size="none" text-anchor="none" style="mix-blend-mode: normal"><path d="M172.62206,0h38.20588l0.94853,1.03384c2.57647,0.04993 3.75588,0.36307 6.275,0.92376c8.28382,1.81325 16.04265,5.50471 22.675,10.78984c11.06765,8.65741 16.06618,21.20771 20.42647,34.32712c0.775,2.55721 1.03382,5.69132 1.77353,8.22382c2.01176,6.53765 3.19118,13.36162 4.24265,20.11279c0.55294,3.54706 0.87353,7.2775 1.43235,10.82029c0.64706,4.10471 1.29412,8.38779 1.96618,12.50603c0.24706,1.51059 0.18529,3.16265 0.46029,4.6825c1.32206,5.07882 2.90588,9.64147 3.71765,14.87441c0.81618,5.25691 3.69265,10.57544 5.25441,15.47059c1.80882,5.66735 3.83971,9.07868 6.79853,14.16588c5.56765,9.56765 8.75294,20.29412 11.93971,30.825c0.71765,2.39559 -0.95882,5.25 1.26176,6.74706v24.05588c-0.35735,0.39706 -0.75882,0.82353 -1.09118,1.23529c-0.15294,1.59412 -0.71912,3.22941 -1.06029,4.74853c-1.55294,6.90735 -4.95,13.15294 -9.38382,18.62794c-0.94706,1.16765 -2.04706,2.92206 -2.99559,3.99118c-1.13824,1.28235 -2.80147,2.88235 -4.05147,4.11618c-1.35441,1.33529 -3.325,3.45882 -4.77794,4.59412c-4.32647,3.38382 -8.88235,6.7 -13.60294,9.51912c-2.125,1.26912 -4.62059,2.35147 -6.83088,3.51029c-9.00882,4.725 -18.75588,8.43676 -28.58235,11.03235c-6.13235,1.62059 -12.73235,0.38676 -19.02353,1.00735c-1.60588,0.15882 -3.56324,0.85882 -4.86471,0.93971c-2.90588,0.17941 -5.61765,-0.03824 -8.57206,0.29853c-1.45441,0.16618 -3.34706,0.84265 -4.47353,0.90441c-3.00882,0.16471 -6.02059,-0.08529 -9.06912,0.19412c-1.63382,0.15 -3.63088,0.88382 -5.04706,0.96471c-3.41912,0.19412 -6.825,-0.07941 -10.27059,0.21324c-1.61765,0.13676 -3.76029,0.94559 -5.06912,0.975c-5.13235,0.12059 -10.28235,0.01912 -15.42632,0.075c-2.81235,0.03088 -5.02265,1.04265 -7.09191,1.10588c-5.36706,0.16324 -10.83103,-0.02059 -16.22412,0.10588l-1.16441,1.10588h-12.29632c-0.21735,-0.375 -0.41132,-0.77059 -0.85397,-0.90588c-3.34735,-1.02206 -7.01103,-1.41765 -10.43221,-2.20882c-2.43706,-0.56176 -4.96824,-1.07059 -7.35368,-1.80882c-1.89029,-0.58382 -3.71603,-1.37059 -5.605,-1.96324c-1.65147,-0.51765 -3.34941,-0.88529 -4.98971,-1.43971c-2.07338,-0.70147 -3.83721,-1.75735 -5.8275,-2.58676c-4.02441,-1.67647 -8.19338,-3.03971 -12.13985,-4.90147c-2.77368,-1.30882 -5.24882,-2.93824 -7.88559,-4.47206c-1.5325,-0.89265 -3.16426,-1.60441 -4.68897,-2.51029c-1.92779,-1.14412 -3.765,-2.47059 -5.63485,-3.70882c-4.33735,-2.87206 -9.02794,-5.85147 -12.76265,-9.48971c-6.24441,-6.08529 -12.62544,-12.13971 -17.41213,-19.48235c-1.51672,-2.32647 -2.66112,-4.73088 -4.00549,-7.14265c-0.91322,-1.63676 -2.1539,-3.08971 -2.89697,-4.82059c-1.04459,-2.43529 -1.73032,-5.16471 -2.55507,-7.69118c-1.52766,-4.67941 -2.82693,-9.18235 -2.88929,-14.13824c-0.38696,-0.45882 -0.66911,-0.75882 -1.09782,-1.17794v-19.05588c0.39369,-0.30147 0.83877,-0.84706 1.18465,-1.23088c-0.10523,-4.42794 0.17179,-5.86618 1.2102,-10.18971c1.0174,-4.23529 1.732,-6.94265 3.42088,-11.06824c0.89524,-2.18676 1.82029,-4.97515 2.70021,-7.27544c2.023,-5.28853 3.86335,-10.63794 6.10829,-15.85676c1.04547,-2.59191 1.48944,-5.94882 2.54826,-8.61838c0.68779,-1.73412 1.32618,-3.48779 2.02765,-5.21765c6.36059,-18.28412 11.87103,-37.55912 23.56676,-53.30632c1.41485,-1.90515 2.72397,-3.53235 4.38471,-5.21721c1.37868,-1.39853 3.03426,-2.86632 4.34074,-4.30882c8.82279,-9.70382 20.43574,-16.67559 32.2225,-22.21368c3.86485,-1.81588 8.6725,-3.61441 12.65632,-5.23515c1.89147,-0.76956 3.93926,-1.28162 5.82456,-2.17471c1.56,-0.73882 3.52294,-1.00574 5.15985,-1.54971c0.97529,-0.29632 1.97721,-0.97471 2.94147,-1.26018c14.91632,-4.41891 30.01353,-8.53403 45.325,-11.37363c3.16618,-0.58738 6.38676,-1.37503 9.54265,-1.97695c1.86029,-0.35475 4.39265,0.09224 6.44853,-0.15909c0.52794,-0.28796 0.65294,-0.5734 1.00882,-1.08662z" fill="#ffffff"/></g></svg></svg>